# xmcd
#
# Track frame offsets: 
#        150
#        10086
#        24295
#        39120
#        51801
#        65698
#        80963
#        91783
#        106485
#        121538
#        136581
#        147820
#        160413
#        174842
#        188743
#        200556
#        214726
#        229239
#        244559
#        258116
#
# Disc length: 3602 seconds
#
# Revision: 2
# Processed by: cddbd v1.5.2PL0 Copyright (c) Steve Scherf et al.
# Submitted via: ExactAudioCopyFreeDBPlugin 1.0
#
DISCID=fb0e1014
DTITLE=Tom Astor - Highway Dreams - 40 Diesel-Country-Songs [CD 2)
DYEAR=2011
DGENRE=Country
TTITLE0=Goodbye mein Freund
TTITLE1=Leg nie deine Träume zu lange auf Eis
TTITLE2=Geh mal richtig aus dir raus (Big Rig)
TTITLE3=Gib mir die Antwort
TTITLE4=Erstmal 'nen Kaffee
TTITLE5=Dolly's Cafe (Memories of Fate)
TTITLE6=Fahr weiter (Go west)
TTITLE7=Jeden Samstagmorgen
TTITLE8=Ich bin doch kein altes Eisen
TTITLE9=Lang ist es her (When I was young)
TTITLE10=Du bist mein Untergang
TTITLE11=Eisen im Feuer
TTITLE12=Lieber Herr Verkehrsminister
TTITLE13=Junge halt doch mal die Luft an
TTITLE14=Mein kleines Stückchen Freiheit
TTITLE15=Country Music (Nashville Highway)
TTITLE16=Wie im Groschenroman (Honky Tonk Man)
TTITLE17=Diesel Blues (Red Light Blues)
TTITLE18=Highway Dreams (Instrumental)
TTITLE19=Nürburgringlied (Take me home Country Roads)
EXTD=
EXTT0=
EXTT1=
EXTT2=
EXTT3=
EXTT4=
EXTT5=
EXTT6=
EXTT7=
EXTT8=
EXTT9=
EXTT10=
EXTT11=
EXTT12=
EXTT13=
EXTT14=
EXTT15=
EXTT16=
EXTT17=
EXTT18=
EXTT19=
PLAYORDER=
